# xmcd CD database file
#
# Track frame offsets:
#	150
#	21282
#	37607
#	63355
#	83620
#	123035
#	136325
#	157587
#	175232
#	196807
#	212767
#	232265
#
# Disc length: 4421 seconds
#
# Revision: 0
# Processed by: cddbd v1.5PL3 Copyright (c) Steve Scherf et al.
# Submitted via: CDex 1.51
#
DISCID=8d11430c
DTITLE=PE'Z - 極月 -KIWAMARI ZUKI-
DYEAR=2003
DGENRE=Jazz
TTITLE0=花咲クDON BLA GO! (Album Ver.)
TTITLE1=タンゴ3兄妹
TTITLE2=WONDERFUL DAYS
TTITLE3=She's a rainbow
TTITLE4=SUNNY and CLOUDY
TTITLE5=アンダルシア -Andalucia-
TTITLE6=T.K.O 〜それ ちょっと早くない?〜
TTITLE7=かもめが翔んだ日
TTITLE8=C止まり 〜SADだけどね〜
TTITLE9=DRY!DRY?DRY! (Album Ver.)
TTITLE10=BIG EAR 〜手痛い洗礼そしてVへ〜
TTITLE11=大地讃頌
EXTD=YEAR: 2003/12/10
EXTT0=
EXTT1=
EXTT2=
EXTT3=
EXTT4=
EXTT5=
EXTT6=
EXTT7=
EXTT8=
EXTT9=
EXTT10=
EXTT11=
PLAYORDER=
